<?xml version="1.0" encoding="us-ascii" standalone="no"?><svg xmlns="http://www.w3.org/2000/svg" xmlns:xlink="http://www.w3.org/1999/xlink" contentStyleType="text/css" height="486px" preserveAspectRatio="none" style="width:643px;height:486px;background:#002B36;" version="1.1" viewBox="0 0 643 486" width="643px" zoomAndPan="magnify"><defs/><g><rect fill="#002B36" height="486" style="stroke:none;stroke-width:1.0;" width="643" x="0" y="0"/><!--entity s3--><g id="elem_s3"><path d="M185.72,16 C185.72,6 203.72,6 203.72,6 C203.72,6 221.72,6 221.72,16 L221.72,44.0679 C221.72,54.0679 203.72,54.0679 203.72,54.0679 C203.72,54.0679 185.72,54.0679 185.72,44.0679 L185.72,16 " fill="#F1F1F1" style="stroke:#181818;stroke-width:0.5;"/><path d="M185.72,16 C185.72,26 203.72,26 203.72,26 C203.72,26 221.72,26 221.72,16 " fill="none" style="stroke:#181818;stroke-width:0.5;"/><text fill="#000000" font-family="sans-serif" font-size="14" lengthAdjust="spacing" textLength="16" x="195.72" y="44.9659">S3</text></g><!--entity kafka--><g id="elem_kafka"><path d="M286.22,301 L333.22,301 C338.22,301 338.22,315.534 338.22,315.534 C338.22,315.534 338.22,330.0679 333.22,330.0679 L286.22,330.0679 C281.22,330.0679 281.22,315.534 281.22,315.534 C281.22,315.534 281.22,301 286.22,301 " fill="#F1F1F1" style="stroke:#181818;stroke-width:0.5;"/><path d="M333.22,301 C328.22,301 328.22,315.534 328.22,315.534 C328.22,330.0679 333.22,330.0679 333.22,330.0679 " fill="none" style="stroke:#181818;stroke-width:0.5;"/><text fill="#000000" font-family="sans-serif" font-size="14" lengthAdjust="spacing" textLength="37" x="286.22" y="320.9659">Kafka</text></g><g id="elem_bolt1"><ellipse cx="86.7166" cy="177.5358" fill="#DC143C" rx="80.7166" ry="23.3558" style="stroke:#268BD2;stroke-width:0.5;"/><text fill="#93A1A1" font-family="sans-serif" font-size="20" lengthAdjust="spacing" textLength="92" x="37.7166" y="185.4757">Bolt S3-S3</text></g><g id="elem_bolt2"><ellipse cx="265.7228" cy="455.4246" fill="#DC143C" rx="114.7228" ry="25.3446" style="stroke:#268BD2;stroke-width:0.5;"/><text fill="#93A1A1" font-family="sans-serif" font-size="20" lengthAdjust="spacing" textLength="152" x="186.7228" y="463.3646">Bolt Kafka-Kafka</text></g><g id="elem_bolt3"><ellipse cx="533.7227" cy="455.4171" fill="#DC143C" rx="103.6827" ry="23.4671" style="stroke:#268BD2;stroke-width:0.5;"/><text fill="#93A1A1" font-family="sans-serif" font-size="20" lengthAdjust="spacing" textLength="122" x="469.7227" y="463.3571">Bolt Kafka-S3</text></g><g id="elem_bolt4"><ellipse cx="320.7227" cy="177.5371" fill="#DC143C" rx="103.6827" ry="23.4671" style="stroke:#268BD2;stroke-width:0.5;"/><text fill="#93A1A1" font-family="sans-serif" font-size="20" lengthAdjust="spacing" textLength="122" x="256.7227" y="185.4771">Bolt S3-Kafka</text></g><!--link s3 to bolt1--><g id="link_s3_bolt1"><path d="M193.55,54.48 C193.55,93.81 193.55,166.76 193.55,166.76 C193.55,166.76 165.16,166.76 165.16,166.76 " fill="none" id="s3-to-bolt1" style="stroke:#93A1A1;stroke-width:1.0;"/><polygon fill="#93A1A1" points="160.16,166.76,169.16,170.76,165.16,166.76,169.16,162.76,160.16,166.76" style="stroke:#93A1A1;stroke-width:1.0;"/><text fill="#93A1A1" font-family="sans-serif" font-size="20" lengthAdjust="spacing" textLength="105" x="87.55" y="118.19">Reads Data</text></g><!--link bolt1 to s3--><g id="link_bolt1_s3"><path d="M167.9,177.76 C186.73,177.76 201.38,177.76 201.38,177.76 C201.38,177.76 201.38,60.43 201.38,60.43 " fill="none" id="bolt1-to-s3" style="stroke:#93A1A1;stroke-width:1.0;"/><polygon fill="#93A1A1" points="201.38,55.43,197.38,64.43,201.38,60.43,205.38,64.43,201.38,55.43" style="stroke:#93A1A1;stroke-width:1.0;"/><text fill="#93A1A1" font-family="sans-serif" font-size="20" lengthAdjust="spacing" textLength="109" x="119.13" y="158.21">Writes Data</text></g><!--link kafka to bolt2--><g id="link_kafka_bolt2"><path d="M300.22,330.51 C300.22,330.51 300.22,424.97 300.22,424.97 " fill="none" id="kafka-to-bolt2" style="stroke:#93A1A1;stroke-width:1.0;"/><polygon fill="#93A1A1" points="300.22,429.97,304.22,420.97,300.22,424.97,296.22,420.97,300.22,429.97" style="stroke:#93A1A1;stroke-width:1.0;"/><text fill="#93A1A1" font-family="sans-serif" font-size="20" lengthAdjust="spacing" textLength="105" x="194.22" y="371.12">Reads Data</text></g><!--link bolt2 to kafka--><g id="link_bolt2_kafka"><path d="M319.22,432.63 C319.22,432.63 319.22,336.55 319.22,336.55 " fill="none" id="bolt2-to-kafka" style="stroke:#93A1A1;stroke-width:1.0;"/><polygon fill="#93A1A1" points="319.22,331.55,315.22,340.55,319.22,336.55,323.22,340.55,319.22,331.55" style="stroke:#93A1A1;stroke-width:1.0;"/><text fill="#93A1A1" font-family="sans-serif" font-size="20" lengthAdjust="spacing" textLength="109" x="209.22" y="406.97">Writes Data</text></g><!--link kafka to bolt3--><g id="link_kafka_bolt3"><path d="M338.49,315.76 C391.48,315.76 499.16,315.76 499.16,315.76 C499.16,315.76 499.16,426.98 499.16,426.98 " fill="none" id="kafka-to-bolt3" style="stroke:#93A1A1;stroke-width:1.0;"/><polygon fill="#93A1A1" points="499.16,431.98,503.16,422.98,499.16,426.98,495.16,422.98,499.16,431.98" style="stroke:#93A1A1;stroke-width:1.0;"/><text fill="#93A1A1" font-family="sans-serif" font-size="20" lengthAdjust="spacing" textLength="105" x="368.43" y="309.14">Reads Data</text></g><!--link bolt3 to s3--><g id="link_bolt3_s3"><path d="M568.28,432.88 C568.28,345.09 568.28,30.76 568.28,30.76 C568.28,30.76 228.05,30.76 228.05,30.76 " fill="none" id="bolt3-to-s3" style="stroke:#93A1A1;stroke-width:1.0;"/><polygon fill="#93A1A1" points="223.05,30.76,232.05,34.76,228.05,30.76,232.05,26.76,223.05,30.76" style="stroke:#93A1A1;stroke-width:1.0;"/><text fill="#93A1A1" font-family="sans-serif" font-size="20" lengthAdjust="spacing" textLength="109" x="458.28" y="55.09">Writes Data</text></g><!--link s3 to bolt4--><g id="link_s3_bolt4"><path d="M209.2,54.29 C209.2,98.98 209.2,189.76 209.2,189.76 C209.2,189.76 225.24,189.76 225.24,189.76 " fill="none" id="s3-to-bolt4" style="stroke:#93A1A1;stroke-width:1.0;"/><polygon fill="#93A1A1" points="230.24,189.76,221.24,185.76,225.24,189.76,221.24,193.76,230.24,189.76" style="stroke:#93A1A1;stroke-width:1.0;"/><text fill="#93A1A1" font-family="sans-serif" font-size="20" lengthAdjust="spacing" textLength="105" x="210.2" y="123.42">Reads Data</text></g><!--link bolt4 to kafka--><g id="link_bolt4_kafka"><path d="M309.72,201.26 C309.72,201.26 309.72,294.62 309.72,294.62 " fill="none" id="bolt4-to-kafka" style="stroke:#93A1A1;stroke-width:1.0;"/><polygon fill="#93A1A1" points="309.72,299.62,313.72,290.62,309.72,294.62,305.72,290.62,309.72,299.62" style="stroke:#93A1A1;stroke-width:1.0;"/><text fill="#93A1A1" font-family="sans-serif" font-size="20" lengthAdjust="spacing" textLength="109" x="199.72" y="241.32">Writes Data</text></g><!--SRC=[XP91Ru9048Nl-oiczam2kzQqFJGHJI-zrKFFeuoLW3jqTucnlxuBebr1wGtcVU-z6O8jSbsXmJsiSLDy6Qvrjk2I3Jp4iKpLJDWBiKET7Kpk76dOOcafq3HdPAc2npWO6jH5CqpYS3etXWzTnxEQ9_EaBxwnTly2g_o7G5u5RnoRb4r6fdFBsLEwb7raDFuCjF5g6D_xIWkJxoth0AijRT3I-1uTDBP9W0nFFPVSsIOWoroJErO45PV7vkMMniRjM8WC7QvzB4nMQW9emIhnNLFj1- -uBR2T5SsJ4Dq6C4cvTB1IKMTP-zUafxRcw2-YOUHD9WXHmuhhXAa_Kq4KlPuwuGK-23CBIt-5E8qQqJClyEb_M-eaqLvmCSgXKRRY2Hlrgg5NtIaDLfqENTDxZRy0]--></g></svg>
